<svg width="13" height="13" viewBox="0 0 13 13" fill="none" xmlns="http://www.w3.org/2000/svg">
<path d="M5.52729 0.870735L6.17141 0.209869C6.44415 -0.0699565 6.88517 -0.0699565 7.15501 0.209869L12.7954 5.99393C13.0682 6.27376 13.0682 6.72624 12.7954 7.00309L7.15501 12.7901C6.88227 13.07 6.44125 13.07 6.17141 12.7901L5.52729 12.1293C5.25165 11.8465 5.25745 11.385 5.53889 11.1082L9.03515 7.69075H0.696351C0.310456 7.69075 0 7.37222 0 6.9763V6.0237C0 5.62778 0.310456 5.30925 0.696351 5.30925H9.03515L5.53889 1.8918C5.25455 1.61495 5.24874 1.15354 5.52729 0.870735Z" fill="black"/>
</svg>
